<?xml version="1.0" encoding="UTF-8" standalone="no"?>
<svg width="337px" height="201px" viewBox="0 0 337 201" version="1.1" xmlns="http://www.w3.org/2000/svg" xmlns:xlink="http://www.w3.org/1999/xlink">
    <!-- Generator: Sketch 3.8.2 (29753) - http://www.bohemiancoding.com/sketch -->
    <title>mastercard-64</title>
    <desc>Created with Sketch.</desc>
    <defs></defs>
    <g id="Page-1" stroke="none" stroke-width="1" fill="none" fill-rule="evenodd">
        <g id="mastercard-64" transform="translate(-0.314086, -1.000000)">
            <g id="Layer_1">
                <g id="layer1">
                    <g id="g10305">
                        <path d="M336.85752,101.5 C336.873397,156.997251 291.895855,201.995207 236.398603,202.00995 C180.900218,202.023559 135.903397,157.048285 135.888654,101.551034 L135.888654,101.5 C135.873911,46.0038827 180.851453,1.00365922 236.346436,0.988916201 C291.844821,0.974173184 336.842777,45.9517151 336.85752,101.448966 L336.85752,101.5 L336.85752,101.5 Z" id="path2268" fill="#FF9900"></path>
                        <path d="M100.934095,1.015 C45.7657263,1.36543017 1.09665363,46.2488436 1.09665363,101.5 C1.09665363,156.966631 46.1138883,201.983866 101.581654,201.983866 C127.614419,201.983866 151.343872,192.06295 169.199933,175.802536 C169.198799,175.802536 169.196531,175.800268 169.191994,175.798 L169.213542,175.798 C172.86981,172.466078 176.279983,168.87105 179.414575,165.037866 L158.827654,165.037866 C156.078648,161.717285 153.580274,158.257212 151.335933,154.687134 L186.841654,154.687134 C189.000939,151.231598 190.956089,147.643374 192.691229,143.927 L145.473883,143.927 C143.864626,140.477134 142.467441,136.949017 141.274391,133.369866 L196.895257,133.369866 C200.247592,123.353687 202.066654,112.637782 202.066654,101.498866 C202.066654,94.1137486 201.265994,86.913486 199.750866,79.9808659 L138.324654,79.9808659 C139.08562,76.4130559 140.046184,72.8883408 141.191603,69.4248659 L196.832883,69.4248659 C195.588799,65.7391117 194.143983,62.147486 192.500704,58.6658659 L145.468212,58.6658659 C147.164793,55.041352 149.087056,51.5155028 151.233866,48.111 L186.713503,48.111 C184.352352,44.3492626 181.739436,40.7553687 178.914447,37.3508659 L159.132721,37.3508659 C162.19133,33.7513017 165.558408,30.3615419 169.213542,27.2008659 C151.356346,10.9381844 127.620089,1.015 101.581654,1.015 C101.365045,1.015 101.150704,1.01386592 100.934095,1.015 L100.934095,1.015 Z" id="path1350" fill="#CC0000"></path>
                        <path d="M326.776698,154.030503 C327.323324,154.030503 327.855207,154.172263 328.374615,154.451246 C328.896291,154.730229 329.297754,155.132827 329.588078,155.655637 C329.878402,156.172777 330.023564,156.718268 330.023564,157.283039 C330.023564,157.841006 329.879536,158.380827 329.593749,158.897966 C329.309095,159.413972 328.907631,159.81657 328.390492,160.103492 C327.879022,160.385877 327.338067,160.528771 326.775564,160.528771 C326.213061,160.528771 325.67324,160.385877 325.158369,160.103492 C324.642363,159.815436 324.243168,159.415106 323.952844,158.897966 C323.667056,158.380827 323.525296,157.841006 323.525296,157.283039 C323.525296,156.718268 323.669324,156.172777 323.960782,155.655637 C324.253374,155.132827 324.657106,154.733631 325.17538,154.451246 C325.699324,154.172263 326.231207,154.030503 326.776698,154.030503 M326.776698,154.56919 C326.321933,154.56919 325.877374,154.687134 325.443022,154.921888 C325.012073,155.156642 324.675251,155.488927 324.432559,155.92895 C324.186464,156.362168 324.063983,156.811263 324.063983,157.283039 C324.063983,157.750279 324.184196,158.201642 324.421218,158.630324 C324.663911,159.057872 324.999598,159.393559 325.428279,159.633983 C325.860363,159.873274 326.308324,159.991218 326.775564,159.991218 C327.245073,159.991218 327.694168,159.873274 328.123983,159.633983 C328.552665,159.393559 328.887218,159.057872 329.126508,158.630324 C329.363531,158.201642 329.481475,157.751413 329.481475,157.283039 C329.481475,156.811263 329.361263,156.361034 329.117436,155.92895 C328.875877,155.488927 328.537922,155.156642 328.10357,154.921888 C327.673754,154.686 327.231464,154.56919 326.776698,154.56919 M325.352296,159.077151 L325.352296,155.581922 L326.556687,155.581922 C326.964955,155.581922 327.262084,155.613676 327.445804,155.681721 C327.629525,155.746363 327.775821,155.856369 327.885827,156.018542 C327.993564,156.178447 328.049134,156.348559 328.049134,156.530011 C328.049134,156.786313 327.958408,157.008592 327.774687,157.196849 C327.595503,157.385106 327.351676,157.492844 327.050011,157.515525 C327.173626,157.566559 327.272291,157.631201 327.349408,157.701514 C327.491168,157.837603 327.661279,158.067821 327.865413,158.393302 L328.290693,159.077151 L327.603441,159.077151 L327.294972,158.527123 C327.051145,158.093905 326.85495,157.823994 326.704117,157.712855 C326.600916,157.634603 326.450084,157.593777 326.253888,157.593777 L325.921603,157.593777 L325.921603,159.080553 L325.354564,159.080553 M325.917067,157.109525 L326.60205,157.109525 C326.928665,157.109525 327.14981,157.059626 327.268888,156.963229 C327.389101,156.86343 327.449207,156.736413 327.449207,156.575374 C327.449207,156.471039 327.421989,156.378045 327.364151,156.298659 C327.305179,156.215872 327.225793,156.156899 327.122592,156.114939 C327.021659,156.075246 326.833402,156.052564 326.558955,156.052564 L325.919335,156.052564 L325.919335,157.109525" id="use9412" fill="#FCB340"></path>
                    </g>
                    <g id="g16480" transform="translate(6.804469, 74.849162)">
                        <g id="g13802" transform="translate(0.290267, 2.261239)" fill="#000066">
                            <path d="M127.832162,53.2177542 L129.170374,44.1224469 C128.438894,44.1224469 127.363788,44.4388547 126.41343,44.4388547 C122.689117,44.4388547 122.224145,42.4485475 122.516737,40.9946592 L126.186615,22.7019777 L131.847933,22.7019777 L133.014899,12.3784637 L127.679061,12.3784637 L128.765508,6.12288827 L117.603911,6.12288827 C117.368022,6.35877654 111.289363,41.3042626 111.289363,45.5615922 C111.289363,51.8613966 114.825419,54.664838 119.813095,54.6206089 C123.716592,54.5877207 126.759324,53.5069441 127.832162,53.2177542 L127.832162,53.2177542 Z" id="path13804"></path>
                            <path d="M131.219654,35.8799665 C131.219654,50.9994972 141.198408,54.5911229 149.701726,54.5911229 C157.550682,54.5911229 161.666251,52.7720615 161.666251,52.7720615 L163.551089,42.4519497 C163.551089,42.4519497 156.919,45.1487877 151.528726,45.1487877 C140.03938,45.1487877 142.053503,36.5819609 142.053503,36.5819609 L164.126067,36.6488715 C164.126067,36.6488715 165.53119,29.7185196 165.53119,26.8935307 C165.53119,19.8429665 161.690067,11.1876816 149.943285,11.1876816 C139.185419,11.1899497 131.219654,22.7813631 131.219654,35.8799665 L131.219654,35.8799665 Z M149.984112,20.7683743 C156.021944,20.7683743 154.908279,27.5546983 154.908279,28.1047263 L143.029944,28.1047263 C143.029944,27.4015978 144.151547,20.7683743 149.984112,20.7683743 L149.984112,20.7683743 Z" id="path13806"></path>
                            <path d="M217.731676,53.214352 L219.647134,41.5514916 C219.647134,41.5514916 214.394084,44.1836872 210.793385,44.1836872 C203.203,44.1836872 200.158,38.3885475 200.158,32.161324 C200.158,19.531095 206.688022,12.5814637 213.957464,12.5814637 C219.410112,12.5814637 223.784251,15.6423408 223.784251,15.6423408 L225.530732,4.30949721 C225.530732,4.30949721 220.36614,0.579513966 214.806888,0.55796648 C198.084905,0.492189944 188.516687,12.1346369 188.516687,32.2611229 C188.516687,45.6012849 195.602408,54.679581 208.36986,54.679581 C211.979631,54.679581 217.731676,53.214352 217.731676,53.214352 L217.731676,53.214352 Z" id="path13808"></path>
                            <path d="M68.9859777,11.3543911 C61.6496257,11.3543911 56.0268659,13.7121397 56.0268659,13.7121397 L54.4731788,22.9287933 C54.4731788,22.9287933 59.1149609,21.0428212 66.1326369,21.0428212 C70.1166536,21.0428212 73.0312346,21.4907821 73.0312346,24.7285754 C73.0312346,26.695067 72.6751341,27.4208771 72.6751341,27.4208771 C72.6751341,27.4208771 69.5314693,27.158905 68.0753128,27.158905 C57.6304525,27.158905 49.1033184,31.1077654 49.1033184,43.0133184 C49.1033184,52.3955475 55.4802402,54.5468939 59.4325028,54.5468939 C66.9820615,54.5468939 69.9703575,49.7803631 70.1427374,49.7667542 L70.0554134,53.722419 L79.4762011,53.722419 L83.679095,24.259067 C83.679095,11.7558547 72.7737989,11.3543911 68.9859777,11.3543911 L68.9859777,11.3543911 Z M70.6167821,35.278905 C70.8220503,37.0775531 70.1518101,45.5831397 63.7079777,45.5831397 C60.3851285,45.5831397 59.522095,43.0428045 59.522095,41.5435531 C59.522095,38.613095 61.1132067,35.0985866 68.9519553,35.0985866 C70.7778212,35.0985866 70.3094469,35.2301397 70.6167821,35.278905 L70.6167821,35.278905 Z" id="path13810"></path>
                            <path d="M93.6918715,54.3291508 C96.1017877,54.3291508 109.877436,54.9426872 109.877436,40.7270168 C109.877436,27.434486 97.1258603,30.0621453 97.1258603,24.7206369 C97.1258603,22.0646257 99.2046257,21.227676 103.004922,21.227676 C104.512112,21.227676 110.316324,21.7073911 110.316324,21.7073911 L111.664743,12.2605196 C111.664743,12.2616536 107.908676,11.4201676 101.793726,11.4201676 C93.8789944,11.4201676 85.8451844,14.5797095 85.8451844,25.389743 C85.8451844,37.6400559 99.2409162,36.409581 99.2409162,41.5696369 C99.2409162,45.0138324 95.4984581,45.297352 92.6133631,45.297352 C87.6222849,45.297352 83.129067,43.5837598 83.1131899,43.6665475 L81.6853855,53.0170223 C81.9450894,53.0964078 84.7179106,54.3291508 93.6918715,54.3291508 L93.6918715,54.3291508 Z" id="path13812"></path>
                            <path d="M305.98224,2.78416201 L304.048637,17.197162 C304.048637,17.197162 300.019257,11.6345084 293.714916,11.6345084 C281.853592,11.6345084 275.740911,23.4550056 275.740911,37.033324 C275.740911,45.7997486 280.100307,54.3926592 289.008492,54.3926592 C295.417168,54.3926592 298.970235,49.923257 298.970235,49.923257 L298.499592,53.7394302 L308.908162,53.7394302 L317.081464,2.86241341 L305.98224,2.78416201 L305.98224,2.78416201 Z M301.386955,30.7970279 C301.386955,36.4481397 298.58805,43.9976983 292.789508,43.9976983 C288.938179,43.9976983 287.132726,40.7644413 287.132726,35.6917095 C287.132726,27.3959274 290.858173,21.924 295.561196,21.924 C299.410257,21.924 301.386955,24.5664022 301.386955,30.7970279 L301.386955,30.7970279 Z" id="path13814"></path>
                            <polygon id="path13816" points="11.0561285 53.7813911 17.5691397 15.370162 18.5263017 53.7813911 25.896676 53.7813911 39.6473743 15.370162 33.5562402 53.7813911 44.5091676 53.7813911 52.9433073 2.83632961 35.5442793 2.70364246 25.1946816 33.8953296 24.911162 2.83632961 8.96602235 2.83632961 0.410536313 53.7813911 11.0561285 53.7813911"></polygon>
                            <path d="M175.896665,53.8539721 C179.010844,36.1453408 180.119972,22.1598883 189.20167,25.056324 C190.50586,18.2019553 193.614369,12.2412402 195.034235,9.34026816 C195.034235,9.34026816 194.58514,8.67229609 191.778296,8.67229609 C186.986816,8.67229609 180.58948,18.3958827 180.58948,18.3958827 L181.545508,12.3841341 L171.581497,12.3841341 L164.908581,53.852838 L175.896665,53.852838 L175.896665,53.8539721 Z" id="path13818"></path>
                            <g id="use14699" transform="translate(219.217432, 11.340782)">
                                <path d="M20.923743,0.0136089385 C13.5839888,0.0136089385 7.96122905,2.37135754 7.96122905,2.37135754 L6.40867598,11.5880112 C6.40867598,11.5880112 11.0527263,9.70203911 18.067,9.70203911 C22.0521508,9.70203911 24.9655978,10.15 24.9655978,13.3877933 C24.9655978,15.3542849 24.6106313,16.080095 24.6106313,16.080095 C24.6106313,16.080095 21.4681006,15.8181229 20.0119441,15.8181229 C9.56594972,15.8181229 1.03994972,19.7669832 1.03994972,31.6725363 C1.03994972,41.0547654 7.41573743,43.2061117 11.368,43.2061117 C18.9152905,43.2061117 21.9058547,38.439581 22.0771006,38.4259721 L21.9886425,42.3816369 L31.4116983,42.3816369 L35.6134581,12.9182849 C35.6145922,0.415072626 24.7092961,0.0136089385 20.923743,0.0136089385 L20.923743,0.0136089385 Z M22.5522793,23.9381229 C22.7564134,25.7367709 22.0861732,34.2423575 15.6434749,34.2423575 C12.3183575,34.2423575 11.4564581,31.7020223 11.4564581,30.2027709 C11.4564581,27.2723128 13.0464358,23.7578045 20.8863184,23.7578045 C22.7133184,23.7578045 22.2460782,23.8893575 22.5522793,23.9381229 L22.5522793,23.9381229 Z" id="path13810_1_"></path>
                            </g>
                            <path d="M265.675966,53.8539721 C267.386156,40.8256816 270.551369,22.5352682 278.979838,25.056324 C280.282894,18.2019553 279.026335,18.2201006 276.220626,18.2201006 C271.425743,18.2201006 270.364246,18.3947486 270.364246,18.3947486 L271.321408,12.383 L261.358531,12.383 L254.685615,53.852838 L265.675966,53.852838 L265.675966,53.8539721 L265.675966,53.8539721 Z" id="use14701"></path>
                        </g>
                        <g id="g10289" transform="translate(3.402235, 0.000000)" fill="#FFFFFF">
                            <path d="M127.50895,52.2345084 L128.848296,43.1403352 C128.116816,43.1403352 127.040575,43.4533408 126.091352,43.4533408 C122.367039,43.4533408 121.956503,41.4732402 122.193525,40.0091453 L125.202235,21.4533575 L130.862419,21.4533575 L132.228983,11.3940838 L126.892011,11.3940838 L127.978458,5.13850838 L117.279564,5.13850838 C117.043676,5.37439665 110.963883,40.3210168 110.963883,44.5760782 C110.963883,50.8758827 114.501073,53.6815922 119.488749,53.6362291 C123.394514,53.6033408 126.436112,52.5225642 127.50895,52.2345084 L127.50895,52.2345084 Z" id="path4157"></path>
                            <path d="M130.898709,34.8955866 C130.898709,50.0151173 140.878598,53.6078771 149.380782,53.6078771 C157.228603,53.6078771 160.681872,51.8534581 160.681872,51.8534581 L162.566709,41.5344804 C162.566709,41.5344804 156.596922,44.1644078 151.205514,44.1644078 C139.717302,44.1644078 141.729156,35.5987151 141.729156,35.5987151 L163.471704,35.5987151 C163.471704,35.5987151 164.875693,28.666095 164.875693,25.8411061 C164.875693,18.791676 161.366855,10.2021676 149.620073,10.2021676 C138.862207,10.2044358 130.898709,21.7958492 130.898709,34.8955866 L130.898709,34.8955866 Z M149.660899,19.7839944 C155.698732,19.7839944 154.585067,26.5691844 154.585067,27.1180782 L142.706732,27.1180782 C142.706732,26.4172179 143.829469,19.7839944 149.660899,19.7839944 L149.660899,19.7839944 Z" id="path4155"></path>
                            <path d="M217.410732,52.2299721 L219.325056,40.5659777 C219.325056,40.5659777 214.075408,43.1981732 210.472441,43.1981732 C202.88319,43.1981732 199.839324,37.4030335 199.839324,31.1769441 C199.839324,18.5467151 206.369346,11.5982179 213.638788,11.5982179 C219.090302,11.5982179 223.465575,14.659095 223.465575,14.659095 L225.212056,3.3262514 C225.212056,3.3262514 218.723994,0.700860335 213.162475,0.700860335 C200.811229,0.700860335 188.79567,11.4156313 188.79567,31.5387151 C188.79567,44.8822793 195.283732,53.6952011 208.051184,53.6952011 C211.660955,53.6963352 217.410732,52.2299721 217.410732,52.2299721 L217.410732,52.2299721 Z" id="path4151"></path>
                            <path d="M68.6650335,10.3688771 C61.3286816,10.3688771 55.7047877,12.7266257 55.7047877,12.7266257 L54.1522346,21.9432793 C54.1522346,21.9432793 58.7940168,20.0573073 65.8105587,20.0573073 C69.7945754,20.0573073 72.7091564,20.5052682 72.7091564,23.7430615 C72.7091564,25.7095531 72.3519218,26.4353631 72.3519218,26.4353631 C72.3519218,26.4353631 69.2093911,26.172257 67.7543687,26.172257 C58.5014246,26.172257 48.7812402,30.1211173 48.7812402,42.0266704 C48.7812402,51.4077654 55.158162,53.5602458 59.1104246,53.5602458 C66.6588492,53.5602458 69.9125196,48.662162 70.0860335,48.647419 L69.7333352,52.7357709 L79.1541229,52.7357709 L83.3570168,23.2712849 C83.3570168,10.7714749 72.4528547,10.3688771 68.6650335,10.3688771 L68.6650335,10.3688771 Z M70.9570056,34.3591676 C71.1611397,36.1589497 69.8285978,44.5953575 63.3870335,44.5953575 C60.0641844,44.5953575 59.2000168,42.0572905 59.2000168,40.5557709 C59.2000168,37.627581 60.7911285,34.1119385 68.6310112,34.1119385 C70.4546089,34.1142067 70.6496704,34.3092682 70.9570056,34.3591676 L70.9570056,34.3591676 Z" id="path4149"></path>
                            <path d="M93.3697933,53.3447709 C95.7797095,53.3447709 109.556492,53.9571732 109.556492,39.7415028 C109.556492,26.4512402 96.8037821,29.0766313 96.8037821,23.7373911 C96.8037821,21.0791117 98.8825475,20.242162 102.681709,20.242162 C104.190034,20.242162 109.993112,20.7218771 109.993112,20.7218771 L111.342665,11.2750056 C111.342665,11.2761397 107.586598,10.4346536 101.471648,10.4346536 C93.5569162,10.4346536 85.5231061,13.5941955 85.5231061,24.4042291 C85.5231061,36.6534078 98.918838,35.424067 98.918838,40.5841229 C98.918838,44.0283184 95.1763799,44.3084358 92.292419,44.3084358 C87.3013408,44.3084358 82.8069888,42.5959777 82.7911117,42.6776313 L81.3644413,52.0292402 C81.6230112,52.1086257 84.3946983,53.3447709 93.3697933,53.3447709 L93.3697933,53.3447709 Z" id="path4145"></path>
                            <path d="M306.033274,1.89164246 L303.725425,16.211648 C303.725425,16.211648 299.698313,10.6489944 293.393972,10.6489944 C283.591,10.6489944 275.419966,22.4683575 275.419966,36.0489441 C275.419966,44.8153687 279.778229,53.4048771 288.687547,53.4048771 C295.096223,53.4048771 298.649291,48.9366089 298.649291,48.9366089 L298.178648,52.7527821 L308.58495,52.7527821 L316.758251,1.87463128 L306.033274,1.89164246 L306.033274,1.89164246 Z M301.064877,29.812648 C301.064877,35.4637598 298.267106,43.0121844 292.466296,43.0121844 C288.616101,43.0121844 286.811782,39.7800615 286.811782,34.7073296 C286.811782,26.4126816 290.537229,20.9396201 295.237983,20.9396201 C299.089313,20.938486 301.064877,23.5842905 301.064877,29.812648 L301.064877,29.812648 Z" id="path4139"></path>
                            <polygon id="path4133" points="10.7351844 52.7970112 17.2481955 14.3857821 18.2042235 52.7970112 25.5757318 52.7970112 39.3264302 14.3857821 33.2352961 52.7970112 44.1882235 52.7970112 52.6234972 1.85081564 35.6860391 1.85081564 25.1379777 33.1094134 24.5890838 1.85081564 8.97622905 1.85081564 0.419608939 52.7970112"></polygon>
                            <path d="M175.575721,52.867324 C178.689899,35.1575587 179.267145,20.7774469 186.69876,23.4096425 C187.999547,16.5552737 189.254972,13.9037989 190.674838,11.0028268 C190.674838,11.0028268 190.009134,10.8633352 188.61195,10.8633352 C183.820469,10.8633352 180.270804,17.4092346 180.270804,17.4092346 L181.224564,11.397486 L171.262821,11.397486 L164.588771,52.867324 L175.575721,52.867324 L175.575721,52.867324 Z" id="path4131"></path>
                            <g id="use8523" transform="translate(221.152283, 10.206704)">
                                <path d="M20.9452905,0.162173184 C13.6089385,0.162173184 7.98504469,2.51992179 7.98504469,2.51992179 L6.4336257,11.7365754 C6.4336257,11.7365754 11.0754078,9.85060335 18.0919497,9.85060335 C22.0759665,9.85060335 24.9882793,10.2985642 24.9882793,13.5363575 C24.9882793,15.5028492 24.6333128,16.2286592 24.6333128,16.2286592 C24.6333128,16.2286592 21.4907821,15.9655531 20.0346257,15.9655531 C10.7828156,15.9655531 1.06263128,19.9144134 1.06263128,31.8199665 C1.06263128,41.2010615 7.43841899,43.3535419 11.3906816,43.3535419 C18.9391061,43.3535419 22.1927765,38.4554581 22.3651564,38.4407151 L22.0147263,42.529067 L31.435514,42.529067 L35.6372737,13.064581 C35.6384078,0.56477095 24.7331117,0.162173184 20.9452905,0.162173184 L20.9452905,0.162173184 Z M23.2406648,24.1524637 C23.4447989,25.9522458 22.1111229,34.3886536 15.6672905,34.3886536 C12.3444413,34.3886536 11.4825419,31.8505866 11.4825419,30.349067 C11.4825419,27.4208771 13.0736536,23.9052346 20.9124022,23.9052346 C22.736,23.9075028 22.9299274,24.1025642 23.2406648,24.1524637 L23.2406648,24.1524637 Z" id="path4149_1_"></path>
                            </g>
                            <g id="use8525" transform="translate(254.357526, 10.206704)">
                                <path d="M11.0425196,42.6606201 C14.1578324,24.9508547 14.7350782,10.570743 22.1644246,13.2029385 C23.4674804,6.34856983 24.7240391,3.69709497 26.1427709,0.796122905 C26.1427709,0.796122905 25.477067,0.656631285 24.0798827,0.656631285 C19.2884022,0.656631285 15.7387374,7.20253073 15.7387374,7.20253073 L16.6924972,1.19078212 L6.73075419,1.19078212 L0.0567039106,42.6606201 L11.0425196,42.6606201 L11.0425196,42.6606201 Z" id="path4131_1_"></path>
                            </g>
                            <path d="M316.526899,46.4688547 C317.070123,46.4688547 317.605408,46.6083464 318.121413,46.8918659 C318.641955,47.1663128 319.046821,47.5700447 319.337145,48.0928547 C319.628603,48.6122626 319.771497,49.1532179 319.771497,49.7191229 C319.771497,50.2782235 319.628603,50.8180447 319.341682,51.3340503 C319.057028,51.8500559 318.656698,52.2549218 318.140693,52.5395754 C317.625821,52.823095 317.086,52.9659888 316.525765,52.9659888 C315.960994,52.9659888 315.421173,52.823095 314.905168,52.5395754 C314.390296,52.2526536 313.991101,51.8500559 313.705313,51.3340503 C313.414989,50.8180447 313.273229,50.2782235 313.273229,49.7191229 C313.273229,49.1532179 313.417257,48.6122626 313.708715,48.0928547 C314.001307,47.5700447 314.407307,47.168581 314.925581,46.8918659 C315.448391,46.6083464 315.983676,46.4688547 316.526899,46.4688547 M316.526899,47.0041397 C316.072134,47.0041397 315.627575,47.1220838 315.193223,47.3591061 C314.760006,47.5904581 314.423184,47.9250112 314.179358,48.3627654 C313.936665,48.7948492 313.814184,49.2473464 313.814184,49.7168547 C313.814184,50.1863631 313.932128,50.6354581 314.169151,51.0641397 C314.410709,51.4916872 314.746397,51.8273743 315.179615,52.068933 C315.608296,52.3048212 316.056257,52.4238994 316.526899,52.4238994 C316.99414,52.4238994 317.445503,52.3048212 317.874184,52.068933 C318.302866,51.8273743 318.638553,51.4916872 318.876709,51.0641397 C319.116,50.6320559 319.23281,50.1863631 319.23281,49.7168547 C319.23281,49.2473464 319.111464,48.7948492 318.868771,48.3627654 C318.627212,47.9250112 318.290391,47.5904581 317.854905,47.3591061 C317.423955,47.1232179 316.982799,47.0041397 316.526899,47.0041397 M315.103631,51.5132346 L315.103631,48.0168715 L316.306888,48.0168715 C316.716291,48.0168715 317.015687,48.0497598 317.19714,48.1166704 C317.38086,48.1790447 317.524888,48.2913184 317.637162,48.4534916 C317.747168,48.6145307 317.802737,48.7835084 317.802737,48.9649609 C317.802737,49.2201285 317.709743,49.4435419 317.526022,49.6317989 C317.346838,49.8200559 317.105279,49.9289274 316.803615,49.9493408 C316.923827,50.0015084 317.023626,50.0638827 317.100743,50.1341955 C317.240235,50.2725531 317.412615,50.503905 317.616749,50.8271173 L318.044296,51.5121006 L317.353642,51.5121006 L317.046307,50.9620726 C316.801346,50.5277207 316.605151,50.2578101 316.455453,50.1478045 C316.352251,50.0672849 316.201419,50.0275922 316.002955,50.0275922 L315.672939,50.0275922 L315.672939,51.5143687 L315.103631,51.5132346 M315.668402,49.5456089 L316.353385,49.5456089 C316.681134,49.5456089 316.902279,49.4968436 317.020223,49.3993128 C317.139302,49.3040503 317.201676,49.1736313 317.201676,49.0114581 C317.201676,48.908257 317.173324,48.8152626 317.11662,48.7370112 C317.058782,48.6530894 316.978263,48.5929832 316.875061,48.5510223 C316.77186,48.5113296 316.587006,48.4909162 316.310291,48.4909162 L315.669536,48.4909162 L315.669536,49.5456089" id="text9407"></path>
                        </g>
                    </g>
                </g>
            </g>
        </g>
    </g>
</svg>