<?xml version="1.0" encoding="UTF-8" standalone="no"?>
<svg width="441px" height="203px" viewBox="0 0 441 203" version="1.1" xmlns="http://www.w3.org/2000/svg" xmlns:xlink="http://www.w3.org/1999/xlink">
    <!-- Generator: Sketch 3.8.2 (29753) - http://www.bohemiancoding.com/sketch -->
    <title>amex-64</title>
    <desc>Created with Sketch.</desc>
    <defs>
        <linearGradient x1="50%" y1="0%" x2="50%" y2="100%" id="linearGradient-1">
            <stop stop-color="#007EA9" offset="0%"></stop>
            <stop stop-color="#007EA9" offset="100%"></stop>
        </linearGradient>
    </defs>
    <g id="Page-1" stroke="none" stroke-width="1" fill="none" fill-rule="evenodd">
        <g id="amex-64" transform="translate(-1.000000, 0.000000)">
            <g id="Layer_1">
                <path d="M438.926615,0 L1.54961832,0 L1.54961832,202.106846 L438.926615,202.106846 L438.926615,135.406435 C440.664048,134.250078 441.521916,132.770875 441.521916,130.962408 C441.521916,128.892521 440.664048,127.610444 438.926615,126.5305" id="path20" fill="url(#linearGradient-1)"></path>
                <path d="M40.9316183,63.6708214 L32.5264885,43.189516 L24.1693969,63.6708214 L40.9316183,63.6708214 Z M226.095511,55.5151802 C224.407977,56.5394779 222.412069,56.5735695 220.021008,56.5735695 L205.102832,56.5735695 L205.102832,45.1621802 L220.224008,45.1621802 C222.364031,45.1621802 224.597031,45.2582565 226.047473,46.0888519 C227.640481,46.8373176 228.626038,48.4303252 228.626038,50.6307832 C228.626038,52.8761802 227.688519,54.6830351 226.095511,55.5151802 L226.095511,55.5151802 Z M332.520198,63.6708214 L324.022092,43.189516 L315.570473,63.6708214 L332.520198,63.6708214 L332.520198,63.6708214 Z M134.138061,85.8396611 L121.548962,85.8396611 L121.502473,45.6022718 L103.695809,85.8396611 L92.9135649,85.8396611 L75.0604122,45.5666305 L75.0604122,85.8396611 L50.0836641,85.8396611 L45.3650763,74.3802336 L19.796374,74.3802336 L15.0297481,85.8396611 L1.69218321,85.8396611 L23.6828168,34.4636153 L41.9280229,34.4636153 L62.8137786,83.1061344 L62.8137786,34.4636153 L82.856542,34.4636153 L98.9276336,69.3160809 L113.690847,34.4636153 L134.136511,34.4636153 L134.136511,85.8396611 L134.138061,85.8396611 Z M184.313153,85.8396611 L143.290107,85.8396611 L143.290107,34.4636153 L184.313153,34.4636153 L184.313153,45.1621802 L155.570832,45.1621802 L155.570832,54.4226992 L183.623573,54.4226992 L183.623573,64.9539054 L155.570832,64.9539054 L155.570832,75.2139283 L184.313153,75.2139283 L184.313153,85.8396611 L184.313153,85.8396611 Z M242.154206,48.3001573 C242.154206,56.4914397 236.687153,60.7234473 233.501137,61.9941344 C236.188176,63.0168825 238.48316,64.8237374 239.575641,66.3206687 C241.309664,68.8759893 241.60874,71.1585771 241.60874,75.746997 L241.60874,85.8396611 L229.222641,85.8396611 L229.176153,79.3607069 C229.176153,76.2692183 229.47213,71.8233634 227.23758,69.3517221 C225.443122,67.5448672 222.708046,67.1528137 218.286985,67.1528137 L205.104382,67.1528137 L205.104382,85.8396611 L192.825206,85.8396611 L192.825206,34.4636153 L221.070099,34.4636153 C227.346053,34.4636153 231.970115,34.6294244 235.940237,36.9244092 C239.82513,39.2193939 242.154206,42.5696687 242.154206,48.3001573 L242.154206,48.3001573 Z M261.806466,85.8396611 L249.276252,85.8396611 L249.276252,34.4636153 L261.806466,34.4636153 L261.806466,85.8396611 L261.806466,85.8396611 Z M407.173061,85.8396611 L389.770847,85.8396611 L366.494031,47.2789588 L366.494031,85.8396611 L341.48474,85.8396611 L336.705718,74.3802336 L311.195901,74.3802336 L306.559443,85.8396611 L292.189832,85.8396611 C286.220702,85.8396611 278.663214,84.5193863 274.383168,80.1572107 C270.067481,75.7950351 267.822084,69.8863405 267.822084,60.5436916 C267.822084,52.9242183 269.164053,45.958684 274.442053,40.4544397 C278.412176,36.3541496 284.629244,34.4636153 293.09171,34.4636153 L304.980382,34.4636153 L304.980382,45.4721038 L293.341198,45.4721038 C288.859702,45.4721038 286.329176,46.1384397 283.891626,48.5155542 C281.798092,50.6788214 280.361595,54.7682641 280.361595,60.1531878 C280.361595,65.6574321 281.455626,69.6260046 283.738214,72.218516 C285.628748,74.2516153 289.064252,74.8683634 292.296756,74.8683634 L297.811847,74.8683634 L315.119534,34.4651649 L333.519702,34.4651649 L354.310931,83.0596458 L354.310931,34.4651649 L373.008626,34.4651649 L394.594809,70.2458519 L394.594809,34.4651649 L407.173061,34.4651649 L407.173061,85.8396611 L407.173061,85.8396611 Z M1.54961832,95.9307756 L22.5314504,95.9307756 L27.2624351,84.5193863 L37.8540763,84.5193863 L42.5726641,95.9307756 L83.8560458,95.9307756 L83.8560458,87.2064244 L87.5410382,95.9679664 L108.97226,95.9679664 L112.657252,87.0762565 L112.657252,95.9307756 L215.254382,95.9307756 L215.206344,77.1989893 L217.191405,77.1989893 C218.581412,77.2470275 218.987412,77.3756458 218.987412,79.6706305 L218.987412,95.9307756 L272.050992,95.9307756 L272.050992,91.5701496 C276.331038,93.8635847 282.988198,95.9307756 291.748191,95.9307756 L314.071992,95.9307756 L318.849466,84.5193863 L329.441107,84.5193863 L334.113206,95.9307756 L377.13216,95.9307756 L377.13216,85.0911954 L383.646756,95.9307756 L418.119565,95.9307756 L418.119565,24.2764244 L384.003168,24.2764244 L384.003168,32.7388901 L379.225695,24.2764244 L344.218267,24.2764244 L344.218267,32.7388901 L339.831298,24.2764244 L292.544695,24.2764244 C284.629244,24.2764244 277.671458,25.3813023 272.050992,28.4603939 L272.050992,24.2764244 L239.41913,24.2764244 L239.41913,28.4603939 C235.842611,25.2867756 230.969061,24.2764244 225.550046,24.2764244 L106.33326,24.2764244 L98.3341298,42.783516 L90.1196031,24.2764244 L52.5692519,24.2764244 L52.5692519,32.7388901 L48.4441679,24.2764244 L16.4197557,24.2764244 L1.5480687,58.3447832 L1.5480687,95.9307756 L1.54961832,95.9307756 Z" id="path30" fill="#FFFFFF"></path>
                <path d="M438.456756,133.826692 L416.075618,133.826692 C413.841069,133.826692 412.356534,133.910371 411.105992,134.754913 C409.810511,135.587058 409.311534,136.822104 409.311534,138.452302 C409.311534,140.390875 410.405565,141.7096 411.997023,142.27986 C413.292504,142.730798 414.684061,142.862516 416.729557,142.862516 L423.385168,143.040722 C430.101214,143.206531 434.58426,144.360997 437.317786,147.176653 C437.815214,147.568707 438.11429,148.008798 438.456756,148.44889 L438.456756,133.826692 Z M438.456756,167.706002 C435.47374,172.068177 429.661122,174.279483 421.79216,174.279483 L398.076802,174.279483 L398.076802,163.260147 L421.696084,163.260147 C424.039107,163.260147 425.678603,162.951773 426.66571,161.98791 C427.521099,161.192956 428.117702,160.03849 428.117702,158.636086 C428.117702,157.139154 427.521099,155.950597 426.617672,155.237773 C425.726641,154.453661 424.429611,154.097249 422.291137,154.097249 C410.760427,153.705195 396.375321,154.453661 396.375321,138.191966 C396.375321,130.738302 401.107855,122.892585 413.994481,122.892585 L438.455206,122.892585 L438.455206,112.668203 L415.728504,112.668203 C408.869893,112.668203 403.88787,114.310798 400.359389,116.864569 L400.359389,112.668203 L366.743519,112.668203 C361.367893,112.668203 355.057847,114.000875 352.073282,116.864569 L352.073282,112.668203 L292.044168,112.668203 L292.044168,116.864569 C287.266695,113.418218 279.20558,112.668203 275.484947,112.668203 L235.889099,112.668203 L235.889099,116.864569 C232.10958,113.204371 223.70445,112.668203 218.581412,112.668203 L174.266977,112.668203 L164.126275,123.6426 L154.628664,112.668203 L88.4320687,112.668203 L88.4320687,184.372147 L153.382771,184.372147 L163.831847,173.224192 L173.675023,184.372147 L213.710962,184.407788 L213.710962,167.540192 L217.646992,167.540192 C222.959084,167.622322 229.224191,167.408475 234.751679,165.018963 L234.751679,184.370597 L267.774046,184.370597 L267.774046,165.6822 L269.367053,165.6822 C271.400153,165.6822 271.600053,165.765879 271.600053,167.797429 L271.600053,184.369047 L371.916145,184.369047 C378.285076,184.369047 384.942237,182.738849 388.628779,179.780628 L388.628779,184.369047 L420.448641,184.369047 C427.07016,184.369047 433.536718,183.440826 438.456756,181.063712 L438.456756,167.706002 L438.456756,167.706002 Z M389.471771,147.176653 C391.862832,149.651394 393.144366,152.775424 393.144366,158.064276 C393.144366,169.119254 386.237718,174.279483 373.853168,174.279483 L349.934809,174.279483 L349.934809,163.260147 L373.757092,163.260147 C376.086168,163.260147 377.738061,162.951773 378.773206,161.98791 C379.617748,161.192956 380.223649,160.03849 380.223649,158.636086 C380.223649,157.139154 379.56816,155.950597 378.725168,155.237773 C377.786099,154.453661 376.490618,154.097249 374.352145,154.097249 C362.867924,153.705195 348.485916,154.453661 348.485916,138.191966 C348.485916,130.738302 353.168863,122.892585 366.043092,122.892585 L390.661878,122.892585 L390.661878,133.829791 L368.135076,133.829791 C365.902076,133.829791 364.450084,133.91347 363.215038,134.758012 C361.869969,135.590157 361.370992,136.825203 361.370992,138.455402 C361.370992,140.393974 362.513061,141.712699 364.058031,142.282959 C365.353511,142.733898 366.745069,142.865615 368.837053,142.865615 L375.447725,143.043821 C382.114183,143.206531 386.690206,144.359447 389.471771,147.176653 L389.471771,147.176653 Z M278.661664,144.003035 C277.019069,144.977745 274.987519,145.061424 272.598008,145.061424 L257.679832,145.061424 L257.679832,133.519867 L272.801008,133.519867 C274.987519,133.519867 277.17558,133.566356 278.661664,134.448089 C280.253122,135.280234 281.204588,136.871692 281.204588,139.0706 C281.204588,141.269508 280.253122,143.040722 278.661664,144.003035 L278.661664,144.003035 Z M286.078137,150.39831 C288.811664,151.407111 291.046214,153.215516 292.093756,154.712447 C293.827779,157.221284 294.078817,159.562757 294.128405,164.092292 L294.128405,174.279483 L281.799641,174.279483 L281.799641,167.850116 C281.799641,164.758628 282.097168,160.181055 279.81458,157.791544 C278.020122,155.950597 275.285046,155.510505 270.805099,155.510505 L257.681382,155.510505 L257.681382,174.279483 L245.341771,174.279483 L245.341771,122.891035 L273.693588,122.891035 C279.910656,122.891035 284.438641,123.165318 288.469198,125.316188 C292.344794,127.657661 294.782344,130.865371 294.782344,136.727577 C294.780794,144.929707 289.310641,149.115226 286.078137,150.39831 L286.078137,150.39831 Z M301.591366,122.891035 L342.577221,122.891035 L342.577221,133.518318 L313.820954,133.518318 L313.820954,142.860966 L341.875244,142.860966 L341.875244,153.345684 L313.820954,153.345684 L313.820954,163.57007 L342.577221,163.616559 L342.577221,174.279483 L301.591366,174.279483 L301.591366,122.891035 L301.591366,122.891035 Z M218.737924,146.606394 L202.868282,146.606394 L202.868282,133.519867 L218.880489,133.519867 C223.313947,133.519867 226.391489,135.326722 226.391489,139.820615 C226.391489,144.264921 223.456511,146.606394 218.737924,146.606394 L218.737924,146.606394 Z M190.637145,169.605834 L171.782939,148.673585 L190.637145,128.406127 L190.637145,169.605834 L190.637145,169.605834 Z M141.946588,163.57007 L111.753824,163.57007 L111.753824,153.345684 L138.714084,153.345684 L138.714084,142.860966 L111.753824,142.860966 L111.753824,133.518318 L142.541641,133.518318 L155.973733,148.493829 L141.946588,163.57007 L141.946588,163.57007 Z M239.575641,139.820615 C239.575641,154.095699 228.925115,157.043078 218.190908,157.043078 L202.868282,157.043078 L202.868282,174.279483 L178.999511,174.279483 L163.878336,157.267773 L148.163656,174.279483 L99.5211374,174.279483 L99.5211374,122.891035 L148.912122,122.891035 L164.020901,139.735386 L179.641053,122.891035 L218.880489,122.891035 C228.626038,122.891035 239.575641,125.588921 239.575641,139.820615 L239.575641,139.820615 Z" id="path32" fill="#FFFFFF"></path>
            </g>
        </g>
    </g>
</svg>