<?xml version="1.0" standalone="no"?><!-- no kidding around my files... (http://www.dodero.eu) --><!DOCTYPE svg PUBLIC "-//W3C//DTD SVG 1.1//EN" "http://www.w3.org/Graphics/SVG/1.1/DTD/svg11.dtd"><svg id="Untitled-Page%201" viewBox="0 0 1430 880" style="background-color:#ffffff00" version="1.1"	xmlns="http://www.w3.org/2000/svg" xmlns:xlink="http://www.w3.org/1999/xlink" xml:space="preserve"	x="0px" y="0px" width="1430px" height="880px">	<defs>		<radialGradient id="gradient1" cx="50.6977%" cy="50%" r="50%">			<stop stop-color="#ffffff" stop-opacity="1" offset="0%"/>			<stop stop-color="#ff8000" stop-opacity="1" offset="100%"/>		</radialGradient>	</defs>	<g>		<rect x="0" y="-1" width="1430" height="880" fill="#ffffff"/>		<path d="M 1429.98 879.0058 L 357.3838 878.9818 C 507.3335 853.6667 738.6665 804.3334 1014.6665 711.6667 C 1290.6665 619 1415.3335 525.8333 1429.98 517.9085 L 1429.98 879.0058 Z" fill="#ff8000"/>		<g>			<path d="M 150.0288 399.6931 C 178.333 399.6931 200.3457 390.7787 216.0825 372.9343 C 231.8193 355.1056 239.6875 330.0635 239.6875 297.8238 C 239.6875 267.5213 232.2563 244.3376 217.4253 228.2572 C 202.5781 212.1924 181.2056 204.1443 153.3232 204.1443 L 75.8262 204.1443 L 75.8262 399.6931 L 150.0288 399.6931 L 150.0288 399.6931 ZM 113.7939 231.3598 L 136.2437 231.3598 C 150.5601 231.3598 161.457 232.9978 168.9507 236.258 C 176.4287 239.5182 182.8296 245.4244 188.1372 253.9765 C 195.8496 266.4188 199.7212 281.9795 199.7212 300.6587 C 199.7212 324.8188 194.9131 342.8365 185.2959 354.6961 C 175.6792 366.5556 161.0977 372.4775 141.5518 372.4775 L 113.7939 372.4775 L 113.7939 231.3598 L 113.7939 231.3598 Z" fill="#000000"/>			<path d="M 311.627 399.6931 L 311.627 204.1443 L 273.6587 204.1443 L 273.6587 399.6931 L 311.627 399.6931 L 311.627 399.6931 Z" fill="#000000"/>			<path d="M 391.2114 404.733 C 413.1304 404.733 430.3188 399.5829 442.793 389.251 C 455.251 378.9349 461.4956 364.6814 461.4956 346.5062 C 461.4956 333.7174 458.2017 322.8816 451.6138 313.9673 C 445.0254 305.0529 433.0513 295.3195 415.6597 284.7672 L 402.7485 276.9868 C 393.0693 271.0965 386.6216 266.1353 383.4058 262.1034 C 380.1738 258.0714 378.5659 253.378 378.5659 248.0231 C 378.5659 241.5342 381.0171 236.3053 385.9346 232.3048 C 390.8369 228.3202 397.3623 226.3199 405.5117 226.3199 C 416.0498 226.3199 430.3813 230.0211 448.5068 237.4078 L 448.5068 206.1603 C 430.5376 201.4668 414.395 199.1044 400.0791 199.1044 C 382.188 199.1044 367.7939 204.0025 356.9126 213.7989 C 346.0308 223.5952 340.5981 236.5573 340.5981 252.7007 C 340.5981 264.7966 343.9233 275.3489 350.5894 284.3893 C 357.2402 293.4296 368.6523 302.8637 384.8262 312.6758 L 396.894 319.9049 C 406.6357 325.8583 413.1772 331.0242 416.5181 335.3869 C 419.8594 339.7653 421.5298 345.1202 421.5298 351.4516 C 421.5298 359.484 418.7505 365.8469 413.1929 370.5088 C 407.6353 375.1865 400.0166 377.5175 390.3687 377.5175 C 376.5679 377.5175 359.9878 373.1548 340.5981 364.4137 L 340.5981 397.6771 C 359.8315 402.3706 376.6924 404.733 391.2114 404.733 L 391.2114 404.733 Z" fill="#000000"/>			<path d="M 628.5 360.5838 C 608.3164 370.0193 606.1743 376.725 586.3735 376.725 C 564.2754 376.725 547.0322 370.1138 534.6436 356.8914 C 522.2378 343.6691 516.0435 325.2556 516.0435 301.6195 C 516.0435 277.5731 521.7852 259.0018 533.3037 245.9057 C 544.8223 232.8096 561.1782 231.2706 582.3887 231.2706 C 598.9707 231.2706 601.7046 235.3099 626.2729 243.3885 L 626.2729 211.0742 C 604.188 204.579 600.623 201 578.6826 201 C 544.3008 201 517.853 207.9112 499.3047 225.7093 C 480.7568 243.5232 471.5 268.9581 471.5 301.9982 C 471.5 334.4387 480.7222 359.7158 499.1655 377.8295 C 517.6089 395.9431 543.3608 405 576.4204 405 C 603.4946 405 608.9604 400.9607 628.5 392.8821 L 628.5 360.5838 Z" fill="#000000"/>			<path d="M 971.1035 399.6931 L 1036.0176 204.1443 L 1004.8374 204.1443 L 954.583 355.4993 L 903.2515 204.1443 L 865.1602 204.1443 L 931.4795 399.6931 L 971.1035 399.6931 Z" fill="#000000"/>			<path d="M 1177.896 399.6931 L 1177.896 372.4775 L 1097.9634 372.4775 L 1097.9634 313.0065 L 1157.9131 313.0065 L 1157.9131 285.791 L 1097.9634 285.791 L 1097.9634 231.3598 L 1171.9009 231.3598 L 1171.9009 204.1443 L 1059.9956 204.1443 L 1059.9956 399.6931 L 1177.896 399.6931 L 1177.896 399.6931 Z" fill="#000000"/>			<path d="M 1242.8394 399.6931 L 1242.8394 320.0624 L 1263.0098 320.0624 L 1307.9092 399.6931 L 1353.7456 399.6931 L 1294.374 308.2816 C 1305.3804 303.0054 1314.0293 295.4141 1320.3208 285.5232 C 1326.6123 275.6324 1329.7656 264.6548 1329.7656 252.5905 C 1329.7656 220.3035 1311.5313 204.1443 1275.062 204.1443 L 1207.8691 204.1443 L 1207.8691 399.6931 L 1242.8394 399.6931 L 1242.8394 399.6931 ZM 1242.8394 231.3598 L 1255.7349 231.3598 C 1279.7769 231.3598 1291.7979 240.0222 1291.7979 257.3154 C 1291.7979 281.0031 1278.3252 292.8469 1251.3945 292.8469 L 1242.8394 292.8469 L 1242.8394 231.3598 L 1242.8394 231.3598 Z" fill="#000000"/>			<path id="Ellipse" d="M 645.5 302.5 C 645.5 243.1286 693.6284 195 753 195 C 812.3716 195 860.5 243.1286 860.5 302.5 C 860.5 361.8714 812.3716 410 753 410 C 693.6284 410 645.5 361.8714 645.5 302.5 Z" fill="url(#gradient1)"/>		</g>		<g>			<path d="M 437 524 L 437 479.0625 L 469.3438 524 L 481 524 L 481 458 L 470 458 L 470 502.9375 L 437.6563 458 L 426 458 L 426 524 L 437 524 L 437 524 Z" fill="#000000"/>			<path d="M 559.3999 524 L 559.3999 515 L 529.3999 515 L 529.3999 494 L 552.3999 494 L 552.3999 485 L 529.3999 485 L 529.3999 467 L 557.3999 467 L 557.3999 458 L 515.3999 458 L 515.3999 524 L 559.3999 524 L 559.3999 524 Z" fill="#000000"/>			<path d="M 619.7998 524 L 619.7998 467 L 643.7998 467 L 643.7998 458 L 581.7998 458 L 581.7998 467 L 605.7998 467 L 605.7998 524 L 619.7998 524 L 619.7998 524 Z" fill="#000000"/>			<path d="M 693.3408 524 L 703.7002 478.4063 L 713.2158 524 L 726.4971 524 L 744.2002 458 L 734.5439 458 L 721.7002 506.375 L 711.7158 458 L 699.6533 458 L 688.7002 506.6563 L 676.2783 458 L 663.2002 458 L 680.2158 524 L 693.3408 524 L 693.3408 524 Z" fill="#000000"/>			<path d="M 826.3813 514.8594 C 832.522 508.7656 835.6001 500.4375 835.6001 489.875 C 835.6001 479.5469 832.522 471.3125 826.3813 465.1875 C 820.2251 459.0625 811.9751 456 801.6157 456 C 791.1938 456 782.9126 459.0625 776.7876 465.1875 C 770.6626 471.3125 767.6001 479.5938 767.6001 490 C 767.6001 500.3125 770.647 508.5469 776.7407 514.7344 C 782.8345 520.9219 790.9751 524 801.1626 524 C 811.8188 524 820.2251 520.9531 826.3813 514.8594 L 826.3813 514.8594 ZM 787.022 508.1406 C 783.397 503.5625 781.6001 497.5156 781.6001 489.9844 C 781.6001 482.3906 783.4126 476.3281 787.0532 471.7969 C 790.6782 467.2656 795.5376 465 801.6313 465 C 807.6313 465 812.4595 467.2656 816.1157 471.7969 C 819.772 476.3281 821.6001 482.3438 821.6001 489.8438 C 821.6001 497.5781 819.772 503.7031 816.147 508.2188 C 812.5063 512.75 807.5688 515 801.3345 515 C 795.4126 515 790.647 512.7188 787.022 508.1406 L 787.022 508.1406 Z" fill="#000000"/>			<path d="M 880 524 L 880 497 L 886.3906 497 L 903.0938 524 L 920 524 L 898.2344 493.25 C 902.2031 491.4688 905.3125 488.8906 907.5938 485.5469 C 909.8594 482.2031 911 478.4844 911 474.3906 C 911 463.4688 904.2656 458 890.8125 458 L 866 458 L 866 524 L 880 524 L 880 524 ZM 880 467 L 884.4844 467 C 892.8281 467 897 469.9531 897 475.8594 C 897 483.9531 892.3125 488 882.9688 488 L 880 488 L 880 467 L 880 467 Z" fill="#000000"/>			<path d="M 961.3999 524 L 961.3999 491.5313 L 986.6655 524 L 1003.6499 524 L 975.2593 487.5156 L 997.6499 458 L 985.6812 458 L 961.3999 490 L 961.3999 458 L 947.3999 458 L 947.3999 524 L 961.3999 524 L 961.3999 524 Z" fill="#000000"/>		</g>	</g></svg>