<?xml version="1.0" encoding="UTF-8" standalone="no"?>
<svg width="335px" height="203px" viewBox="0 0 335 203" version="1.1" xmlns="http://www.w3.org/2000/svg" xmlns:xlink="http://www.w3.org/1999/xlink">
    <!-- Generator: Sketch 3.8.2 (29753) - http://www.bohemiancoding.com/sketch -->
    <title>Maestro</title>
    <desc>Created with Sketch.</desc>
    <defs></defs>
    <g id="Page-1" stroke="none" stroke-width="1" fill="none" fill-rule="evenodd">
        <g id="Maestro">
            <path d="M167.383234,176.201353 C187.553974,157.785289 200.224055,131.183118 200.224055,101.599961 C200.224055,72.0150194 187.553974,45.4128481 167.383234,26.9985691 C149.652618,10.8119967 126.127824,0.947969375 100.314632,0.947969375 C45.1378405,0.947969375 0.405208611,46.0108302 0.405208611,101.599961 C0.405208611,157.185522 45.1378405,202.250168 100.314632,202.250168 C126.127824,202.250168 149.652618,192.387926 167.383234,176.201353" id="Fill-2" fill="#0092C7"></path>
            <path d="M234.450052,0.947969375 C208.638645,0.947969375 185.11385,10.8119967 167.383234,26.9985691 C163.770351,30.2972884 160.398446,33.8619757 157.296079,37.6551458 L177.465034,37.6551458 C180.224677,41.030621 182.771902,44.5899533 185.083505,48.3117226 L149.679394,48.3117226 C147.555218,51.7353933 145.62918,55.2911555 143.91913,58.9718693 L190.836628,58.9718693 C192.441362,62.4205303 193.862239,65.9762926 195.076053,69.626661 L139.68863,69.626661 C138.535506,73.0985273 137.564455,76.6542896 136.78797,80.2850227 L197.976713,80.2850227 C199.44757,87.1555694 200.224055,94.2849442 200.224055,101.599961 C200.224055,112.774194 198.414043,123.527162 195.076053,133.569691 L139.68863,133.569691 C140.900659,137.22006 142.314396,140.779392 143.91913,144.228053 L190.836628,144.228053 C189.126578,147.906982 187.205895,151.464529 185.083505,154.886415 L149.679394,154.886415 C151.989211,158.608184 154.536436,162.167516 157.294294,165.542992 L177.465034,165.542992 C174.362667,169.336162 170.996117,172.902634 167.383234,176.201353 C185.11385,192.387926 208.638645,202.250168 234.450052,202.250168 C289.626843,202.250168 334.359475,157.185522 334.359475,101.599961 C334.359475,46.0108302 289.626843,0.947969375 234.450052,0.947969375" id="Fill-3" fill="#D82331"></path>
            <path d="M321.057496,157.706748 C321.057496,155.911017 322.501579,154.45444 324.28303,154.45444 C326.066266,154.45444 327.510348,155.911017 327.510348,157.706748 C327.510348,159.49891 326.066266,160.955487 324.28303,160.955487 C322.501579,160.955487 321.057496,159.49891 321.057496,157.706748 L321.057496,157.706748 Z M324.28303,160.175433 C325.637861,160.175433 326.735649,159.070505 326.735649,157.706748 C326.735649,156.339422 325.637861,155.234494 324.28303,155.234494 C322.928199,155.234494 321.830411,156.339422 321.830411,157.706748 C321.830411,159.070505 322.928199,160.175433 324.28303,160.175433 L324.28303,160.175433 Z M323.847485,159.131195 L323.185242,159.131195 L323.185242,156.275161 L324.384776,156.275161 C324.632894,156.275161 324.889937,156.280516 325.105924,156.419748 C325.339762,156.57683 325.468284,156.851723 325.468284,157.133757 C325.468284,157.45506 325.280857,157.758514 324.977403,157.872755 L325.500414,159.131195 L324.76677,159.131195 L324.33301,158.001277 L323.847485,158.001277 L323.847485,159.131195 L323.847485,157.513966 L324.213414,157.513966 C324.34729,157.513966 324.497232,157.522891 324.615044,157.45506 C324.72393,157.38723 324.781051,157.255138 324.781051,157.128401 C324.781051,157.019515 324.715005,156.892779 324.622184,156.837443 C324.507942,156.769612 324.3223,156.785677 324.199134,156.785677 L323.847485,156.785677 L323.847485,159.131195 L323.847485,159.131195 Z" id="Fill-4" fill="#D82331"></path>
            <path d="M299.9282,123.412921 C299.9282,121.618974 301.372282,120.162397 303.153733,120.162397 C304.93697,120.162397 306.381052,121.618974 306.381052,123.412921 C306.381052,125.208652 304.93697,126.663444 303.153733,126.663444 C301.372282,126.663444 299.9282,125.208652 299.9282,123.412921 L299.9282,123.412921 Z M303.153733,125.88339 C304.508565,125.88339 305.604568,124.776677 305.604568,123.412921 C305.604568,122.049164 304.508565,120.944236 303.153733,120.944236 C301.798902,120.944236 300.701114,122.049164 300.701114,123.412921 C300.701114,124.776677 301.798902,125.88339 303.153733,125.88339 L303.153733,125.88339 Z M302.718188,124.839153 L302.055945,124.839153 L302.055945,121.984904 L303.25548,121.984904 C303.501813,121.984904 303.760641,121.988474 303.976628,122.12949 C304.210466,122.286572 304.338988,122.561465 304.338988,122.843499 C304.338988,123.164803 304.153345,123.466471 303.848107,123.578928 L304.369333,124.839153 L303.637474,124.839153 L303.203714,123.711019 L302.718188,123.711019 L302.718188,124.839153 L302.718188,123.220138 L303.084118,123.220138 C303.219779,123.220138 303.367936,123.232633 303.485747,123.164803 C303.594634,123.095187 303.653539,122.96131 303.653539,122.838144 C303.653539,122.727472 303.583924,122.602521 303.491102,122.547185 C303.378646,122.477569 303.193004,122.493635 303.069837,122.493635 L302.718188,122.493635 L302.718188,124.839153 L302.718188,124.839153 Z" id="Fill-5" fill="#FFFFFF"></path>
            <polyline id="Fill-6" fill="#FFFFFF" points="87.8337632 126.663444 75.3993053 126.663444 82.7892932 87.4358178 65.7726859 126.663444 54.4360161 126.663444 52.3636064 87.6607304 44.9486283 126.663444 33.6637241 126.663444 43.3081938 75.6350424 62.7113745 75.6350424 63.7377617 107.226348 77.4181643 75.6350424 97.6353147 75.6350424 87.8337632 126.663444"></polyline>
            <path d="M226.797666,126.152928 C223.395415,127.095419 220.735733,127.500619 217.863634,127.500619 C211.500034,127.500619 208.028167,124.287581 208.028167,118.386301 C208.028167,117.220682 208.156689,115.976522 208.395882,114.664532 L209.150946,110.603608 L209.732863,107.319169 L215.496696,75.6314724 L227.861538,75.6314724 L226.071162,85.1617007 L232.416912,85.1617007 L230.708647,95.2506407 L224.337906,95.2506407 L221.060607,112.563562 C220.914236,113.323981 220.846405,113.895187 220.846405,114.284322 C220.846405,116.426347 222.133405,117.359914 225.091185,117.359914 C226.508492,117.359914 227.604495,117.229607 228.443455,116.970779 L226.797666,126.152928" id="Fill-7" fill="#FFFFFF"></path>
            <path d="M263.115707,85.5044248 C262.07504,85.0920849 261.828707,85.0920849 261.709111,85.0563845 C261.050438,84.9100127 260.697004,84.8243317 260.638098,84.8136216 C260.261458,84.7457908 259.840193,84.7100904 259.386798,84.7100904 C255.302669,84.7100904 252.36274,86.5433072 248.555289,91.4485455 L249.653077,85.1617007 L238.391378,85.1617007 L230.812178,126.663444 L243.255561,126.663444 C247.705619,101.282227 249.615592,96.8357395 255.584703,96.8357395 C256.030958,96.8357395 256.552184,96.87144 257.153737,96.9410558 L258.608529,97.2409394 L263.115707,85.5044248" id="Fill-8" fill="#FFFFFF"></path>
            <path d="M177.506089,98.2744666 C177.506089,103.518859 180.437094,107.129957 187.086298,109.843189 C192.178964,111.924524 192.967943,112.538571 192.967943,114.421769 C192.967943,117.004694 190.722387,118.170313 185.747532,118.170313 C181.990063,118.170313 178.500346,117.661582 174.471553,116.529879 L172.747223,126.102948 L173.304149,126.197554 L175.610397,126.620604 C176.349396,126.749125 177.447184,126.872292 178.896621,126.984748 C181.888317,127.216801 184.203489,127.329257 185.833213,127.329257 C199.106631,127.329257 205.239964,122.948815 205.239964,113.481062 C205.239964,107.786845 202.676674,104.4435 196.371979,101.93019 C191.097241,99.8310052 190.490334,99.3633296 190.490334,97.4283666 C190.490334,95.191735 192.582379,94.0403963 196.646872,94.0403963 C199.117341,94.0403963 202.487461,94.2742341 205.68622,94.6633687 L207.478381,85.0563845 C204.220717,84.6083441 199.279778,84.2441998 196.407679,84.2441998 C182.334572,84.2441998 177.463249,90.6202956 177.506089,98.2744666" id="Fill-9" fill="#FFFFFF"></path>
            <path d="M128.257354,126.663444 L117.923866,126.663444 L118.164844,122.361543 C115.017851,125.767364 110.823052,127.381023 105.121694,127.381023 C98.3814536,127.381023 93.7582486,122.759603 93.7582486,116.046138 C93.7582486,105.937563 101.792629,100.045208 115.601553,100.045208 C117.017075,100.045208 118.814592,100.157664 120.667444,100.364727 C121.053008,99.0009703 121.158324,98.4119133 121.158324,97.6693445 C121.158324,94.9221968 118.989524,93.8958096 113.18285,93.8958096 C109.632442,93.8958096 105.619715,94.3456349 102.849362,95.0525033 L101.126816,95.4934036 L100.009393,95.7611568 L101.733723,86.4308508 C107.934887,84.8332568 112.026156,84.2263496 116.6208,84.2263496 C127.307723,84.2263496 132.957315,88.4425697 132.957315,96.4001944 C132.957315,98.4476137 132.769888,100.002367 131.946993,104.623787 L129.348002,119.346642 L128.910672,121.988474 L128.592938,124.098369 L128.38052,125.540666 L128.257354,126.663444 L128.257354,126.663444 Z M119.185876,108.174194 C117.881025,108.036748 117.306249,108.002832 116.406598,108.002832 C109.359334,108.002832 105.789292,110.127008 105.789292,114.318237 C105.789292,116.901163 107.531472,118.552308 110.251845,118.552308 C115.31952,118.552308 118.969888,114.311097 119.185876,108.174194 L119.185876,108.174194 Z" id="Fill-10" fill="#FFFFFF"></path>
            <path d="M169.052229,125.767364 C164.789598,126.904422 160.666199,127.457779 156.308962,127.450639 C142.409002,127.441713 135.161816,121.065618 135.161816,108.857857 C135.161816,94.6116031 144.379666,84.1228184 156.894449,84.1228184 C167.131546,84.1228184 173.666509,89.9973232 173.666509,99.2080327 C173.666509,102.267559 173.220253,105.24676 172.138531,109.454055 L147.415987,109.454055 C147.321381,110.094877 147.29639,110.378696 147.29639,110.758905 C147.29639,115.571322 150.982459,118.023941 158.204655,118.023941 C162.647573,118.023941 166.6603,117.213542 171.119284,115.398175 L169.052229,125.767364 L169.052229,125.767364 Z M162.428015,101.075165 C162.495846,100.20943 162.531546,99.5025612 162.531546,98.9563448 C162.531546,95.5880097 160.352035,93.6102062 156.649901,93.6102062 C152.694294,93.6102062 149.865036,96.2609627 148.715482,101.04839 L162.428015,101.075165 L162.428015,101.075165 Z" id="Fill-11" fill="#FFFFFF"></path>
            <path d="M301.768557,107.847535 C299.908565,121.65289 290.339066,127.777297 277.61722,127.777297 C263.547683,127.777297 257.864175,119.177065 257.864175,108.647225 C257.864175,93.9368651 267.487224,83.9710916 282.351096,83.9710916 C295.249659,83.9710916 302.100571,92.167909 302.100571,102.699534 C302.100571,105.262825 302.097001,105.434187 301.768557,107.847535 L301.768557,107.847535 Z M288.9646,102.537097 C288.9646,98.1977107 287.215279,94.097517 282.115473,94.097517 C275.773293,94.097517 271.839106,101.653512 271.839106,108.324136 C271.839106,113.950523 274.534488,117.731198 278.980976,117.649087 C281.676358,117.649087 287.422341,113.950523 288.5594,107.492316 C288.825368,105.983973 288.9646,104.331044 288.9646,102.537097 L288.9646,102.537097 Z" id="Fill-12" fill="#FFFFFF"></path>
        </g>
    </g>
</svg>