<?xml version="1.0" encoding="UTF-8" standalone="no"?>
<svg width="660px" height="203px" viewBox="0 0 660 203" version="1.1" xmlns="http://www.w3.org/2000/svg" xmlns:xlink="http://www.w3.org/1999/xlink">
    <!-- Generator: Sketch 3.8.2 (29753) - http://www.bohemiancoding.com/sketch -->
    <title>visa-64</title>
    <desc>Created with Sketch.</desc>
    <defs></defs>
    <g id="Page-1" stroke="none" stroke-width="1" fill="none" fill-rule="evenodd">
        <g id="visa-64">
            <g id="Group">
                <polygon id="Shape" fill="#00249F" points="232.178 199.164 265.539 3.402 318.898 3.402 285.514 199.164"></polygon>
                <path d="M479.04,8.222 C468.468,4.256 451.904,0 431.217,0 C378.493,0 341.354,26.552 341.037,64.604 C340.74,92.733 367.551,108.424 387.791,117.789 C408.561,127.384 415.543,133.504 415.443,142.072 C415.312,155.194 398.857,161.189 383.521,161.189 C362.164,161.189 350.818,158.222 333.294,150.913 L326.418,147.802 L318.929,191.625 C331.391,197.089 354.438,201.824 378.367,202.069 C434.456,202.069 470.868,175.822 471.282,135.187 C471.483,112.917 457.266,95.97 426.483,81.999 C407.832,72.943 396.41,66.9 396.531,57.73 C396.531,49.593 406.199,40.892 427.088,40.892 C444.537,40.621 457.176,44.426 467.025,48.392 L471.806,50.651 L479.04,8.222" id="Shape" fill="#00249F"></path>
                <path d="M615.867,3.589 L574.636,3.589 C561.864,3.589 552.305,7.075 546.696,19.823 L467.45,199.226 L523.481,199.226 C523.481,199.226 532.642,175.104 534.714,169.808 C540.837,169.808 595.269,169.892 603.05,169.892 C604.647,176.745 609.542,199.226 609.542,199.226 L659.054,199.226 L615.867,3.589 L615.867,3.589 Z M550.07,129.767 C554.483,118.488 571.329,75.043 571.329,75.043 C571.014,75.564 575.709,63.709 578.404,56.359 L582.01,73.237 C582.01,73.237 592.227,119.966 594.363,129.765 L550.07,129.767 L550.07,129.767 L550.07,129.767 Z" id="Shape" fill="#00249F"></path>
                <path d="M187.425,3.545 L135.185,137.04 L129.619,109.911 C119.894,78.638 89.594,44.755 55.72,27.792 L103.487,198.995 L159.942,198.931 L243.946,3.545 L187.425,3.545" id="Shape" fill="#00249F"></path>
                <path d="M86.722,3.424 L0.681,3.424 L0,7.497 C66.939,23.701 111.232,62.86 129.618,109.911 L110.909,19.951 C107.679,7.555 98.311,3.856 86.722,3.424" id="Shape" fill="#FFA000"></path>
            </g>
        </g>
    </g>
</svg>